<svg width="33" height="34" viewBox="0 0 33 34" fill="none" xmlns="http://www.w3.org/2000/svg">
<path d="M18.0462 0.466415C17.9341 0.52248 15.7195 2.68802 13.1334 5.28107C8.62012 9.8224 8.42389 10.0256 8.21365 10.4952C7.72307 11.6025 7.77213 12.8079 8.35381 13.8241C8.48697 14.0554 9.04763 14.6931 9.78349 15.436C10.4773 16.1438 11.0099 16.7465 11.038 16.8517C11.066 16.9638 11.045 17.111 10.9819 17.2301C10.7997 17.5735 9.65033 18.6458 5.39634 22.4372C3.13969 24.4486 1.14234 26.2777 0.960128 26.495C0.301354 27.2729 0 28.1489 0 29.2422C0 30.0201 0.112132 30.4897 0.448527 31.1695C0.770905 31.8142 1.21242 32.3048 1.86419 32.7393C2.62108 33.2509 3.19575 33.4121 4.20494 33.4121C4.87072 33.4121 5.10199 33.3841 5.52949 33.2439C6.6438 32.8795 6.66483 32.8515 11.1711 27.7074C13.4208 25.1354 15.4391 22.8717 15.6494 22.6755C16.0629 22.3041 16.2731 22.22 16.5394 22.3181C16.6305 22.3531 17.2683 22.9348 17.9551 23.6076C19.0554 24.6869 19.2726 24.8691 19.7282 25.0863C20.7374 25.5629 21.8236 25.5699 22.8538 25.1003C23.3584 24.8761 23.4846 24.7569 28.0539 20.2086C30.633 17.6436 32.7845 15.457 32.8406 15.3519C32.8966 15.2468 32.9387 15.0576 32.9387 14.9314C32.9387 14.7212 32.378 14.1395 25.8113 7.57276C20.2678 2.03626 18.6279 0.438381 18.4667 0.410347C18.3546 0.389324 18.1653 0.417358 18.0462 0.466415ZM18.0392 5.28808C17.1071 6.22718 16.2941 7.06817 16.2311 7.16628C15.8106 7.80403 16.6025 8.59596 17.2402 8.17547C17.3384 8.11239 18.1794 7.29944 19.1114 6.36735L20.8144 4.67836L21.7606 5.62447L22.7067 6.56358L20.9266 8.35768C19.1255 10.1728 19.0344 10.2849 19.1185 10.7054C19.1535 10.9227 19.4408 11.217 19.6441 11.2451C20.0295 11.3081 20.2187 11.161 21.9848 9.3949L23.7579 7.62182L24.718 8.58195L25.6852 9.54908L23.877 11.3572L22.0759 13.1723V13.4877C22.0759 13.9993 22.4894 14.3287 22.973 14.2096C23.0921 14.1815 23.8 13.5298 24.9493 12.3804L26.7364 10.6003L27.7035 11.5675L28.6637 12.5276L26.9116 14.2796C25.0474 16.1438 24.9423 16.284 25.0895 16.7255C25.1876 17.0339 25.4259 17.1881 25.8043 17.1881C26.0987 17.1881 26.1127 17.174 27.9068 15.3869L29.7149 13.5788L30.4367 14.3007L31.1516 15.0155L27.7176 18.4495L24.2835 21.8836L17.871 15.471L11.4585 9.05851L14.8925 5.62447L18.3265 2.19044L19.0273 2.89126L19.7282 3.59208L18.0392 5.28808ZM22.8118 23.3273C22.104 23.972 21.3681 24.1402 20.5622 23.8389C20.2117 23.7057 19.9945 23.5235 18.8591 22.4092C18.1443 21.7084 17.4575 21.0846 17.3454 21.0216C17.002 20.8464 16.3712 20.7552 15.9788 20.8323C15.5162 20.9234 15.1728 21.1057 14.7243 21.5051L14.3529 21.8345L12.9092 20.3908L11.4655 18.9471L11.8509 18.5406C12.3275 18.0431 12.5097 17.6085 12.5097 16.9778C12.5097 16.1578 12.3976 15.9756 10.9749 14.5249C9.51017 13.0252 9.363 12.8009 9.363 12.037C9.35599 11.4203 9.53119 11.0208 10.0288 10.4882L10.4002 10.1027L16.8127 16.5223L23.2323 22.9418L22.8118 23.3273ZM11.8719 21.4561C12.9232 22.5073 13.3156 22.9488 13.2736 23.0119C13.1474 23.2221 6.34946 30.9732 6.07614 31.2255C4.6815 32.501 2.52997 32.0735 1.72402 30.3635C1.52779 29.95 1.50677 29.8449 1.50677 29.2072C1.50677 28.5694 1.52779 28.4643 1.72402 28.0508C1.85718 27.7705 2.08845 27.4551 2.31972 27.2308C2.8103 26.7543 10.3231 20.0054 10.3722 19.9984C10.3932 19.9913 11.066 20.6501 11.8719 21.4561Z" fill="url(#paint0_linear_34717_14626)"/>
<defs>
<linearGradient id="paint0_linear_34717_14626" x1="16.4693" y1="33.4121" x2="16.4693" y2="0.403286" gradientUnits="userSpaceOnUse">
<stop offset="0.452535" stop-color="#FFA588"/>
<stop offset="1" stop-color="#F36A3E"/>
</linearGradient>
</defs>
</svg>
